<svg width="0" height="0" class="hidden">
  <symbol id="logos-menu-burger" xmlns="http://www.w3.org/2000/svg" role="img"  fill="currentColor" viewBox="0 0 16 16">
    <path d="M 1 2 L 1 3 L 14 3 L 14 2 Z M 1 7 L 1 8 L 14 8 L 14 7 Z M 1 12 L 1 13 L 14 13 L 14 12 Z"/>
  </symbol>
  <symbol id="logos-linkedin" xmlns="http://www.w3.org/2000/svg" role="img"  fill="currentColor" viewBox="0 0 48 48" >
    <path  d="M8.421 14h.052 0C11.263 14 13 12 13 9.5 12.948 6.945 11.263 5 8.526 5 5.789 5 4 6.945 4 9.5 4 12 5.736 14 8.421 14zM4 17H13V43H4zM44 26.5c0-5.247-4.253-9.5-9.5-9.5-3.053 0-5.762 1.446-7.5 3.684V17h-9v26h9V28h0c0-2.209 1.791-4 4-4s4 1.791 4 4v15h9C44 43 44 27.955 44 26.5z"/>
  </symbol>
  <symbol id="logos-instagram" xmlns:xlink="http://www.w3.org/1999/xlink" xmlns="http://www.w3.org/2000/svg" role="img"  fill="currentColor" viewBox="0 0 494 494" aria-hidden="true" focusable="false" >
    <path d="M247 45.1c65.4 0 73.2.2 99 1.4 23.9 1.1 36.9 5.1 45.5 8.4 11.4 4.4 19.6 9.8 28.2 18.3 8.6 8.6 13.9 16.7 18.3 28.2 3.4 8.6 7.3 21.6 8.4 45.5 1.2 25.8 1.4 33.6 1.4 99s-.2 73.2-1.4 99c-1.1 23.9-5.1 36.9-8.4 45.5-4.4 11.4-9.8 19.6-18.3 28.2-8.6 8.6-16.7 13.9-28.2 18.3-8.6 3.4-21.6 7.3-45.5 8.4-25.8 1.2-33.6 1.4-99 1.4s-73.2-.2-99-1.4c-23.9-1.1-36.9-5.1-45.5-8.4-11.4-4.4-19.6-9.8-28.2-18.3-8.6-8.6-13.9-16.7-18.3-28.2-3.4-8.6-7.3-21.6-8.4-45.5-1.2-25.8-1.4-33.6-1.4-99s.2-73.2 1.4-99c1.1-23.9 5.1-36.9 8.4-45.5 4.4-11.4 9.8-19.6 18.3-28.2 8.6-8.6 16.7-13.9 28.2-18.3 8.6-3.4 21.6-7.3 45.5-8.4 25.8-1.1 33.6-1.4 99-1.4M247 1c-66.5 0-74.9.3-101 1.5-26.1 1.2-43.9 5.3-59.5 11.4-16.1 6.3-29.8 14.6-43.4 28.3-13.6 13.6-22 27.3-28.3 43.4-6 15.5-10.1 33.3-11.3 59.4C2.3 171.1 2 179.5 2 246s.3 74.9 1.5 101c1.2 26.1 5.3 43.9 11.4 59.5 6.3 16.1 14.6 29.8 28.3 43.4 13.6 13.6 27.3 22 43.4 28.3 15.6 6.1 33.4 10.2 59.5 11.4 26.1 1.2 34.5 1.5 101 1.5s74.9-.3 101-1.5c26.1-1.2 43.9-5.3 59.5-11.4 16.1-6.3 29.8-14.6 43.4-28.3 13.6-13.6 22-27.3 28.3-43.4 6.1-15.6 10.2-33.4 11.4-59.5 1.2-26.1 1.5-34.5 1.5-101s-.3-74.9-1.5-101c-1.2-26.1-5.3-43.9-11.4-59.5-6.3-16.1-14.6-29.8-28.3-43.4-13.6-13.6-27.3-22-43.4-28.3-15.7-6-33.5-10.1-59.6-11.3C321.9 1.3 313.5 1 247 1z"></path>
    <path d="M245 119.2c-69.5 0-125.8 56.3-125.8 125.8S175.5 370.8 245 370.8 370.8 314.5 370.8 245 314.5 119.2 245 119.2zm0 207.5c-45.1 0-81.7-36.6-81.7-81.7s36.6-81.7 81.7-81.7 81.7 36.6 81.7 81.7-36.6 81.7-81.7 81.7z"></path>
    <circle cx="375.8" cy="114.2" r="29.4" fill="#FFFFFF"></circle>
  </symbol>
    <symbol id="logos-facebook" xmlns:xlink="http://www.w3.org/1999/xlink" xmlns="http://www.w3.org/2000/svg" role="img"  fill="currentColor"  viewBox="0 0 500 1074.3" aria-hidden="true" focusable="false" >
    <path d="M108.9 212.9v148.5H0v178.2h108.9v534.7h222.8V539.6h148.5s14.9-84.2 19.8-183.2H331.7V232.6s24.8-44.6 49.5-44.6H500V-.1c-59.4 5-133.7 5-163.4 5-232.6.1-227.7 183.2-227.7 208z"></path>
  </symbol>
  <symbol id="logos-github" xmlns="http://www.w3.org/2000/svg" xmlns:xlink="http://www.w3.org/1999/xlink" aria-hidden="true" role="img" fill="currentColor" preserveAspectRatio="xMidYMid meet" viewBox="0 0 256 250" >
    <path d="M128.001 0C57.317 0 0 57.307 0 128.001c0 56.554 36.676 104.535 87.535 121.46c6.397 1.185 8.746-2.777 8.746-6.158c0-3.052-.12-13.135-.174-23.83c-35.61 7.742-43.124-15.103-43.124-15.103c-5.823-14.795-14.213-18.73-14.213-18.73c-11.613-7.944.876-7.78.876-7.78c12.853.902 19.621 13.19 19.621 13.19c11.417 19.568 29.945 13.911 37.249 10.64c1.149-8.272 4.466-13.92 8.127-17.116c-28.431-3.236-58.318-14.212-58.318-63.258c0-13.975 5-25.394 13.188-34.358c-1.329-3.224-5.71-16.242 1.24-33.874c0 0 10.749-3.44 35.21 13.121c10.21-2.836 21.16-4.258 32.038-4.307c10.878.049 21.837 1.47 32.066 4.307c24.431-16.56 35.165-13.12 35.165-13.12c6.967 17.63 2.584 30.65 1.255 33.873c8.207 8.964 13.173 20.383 13.173 34.358c0 49.163-29.944 59.988-58.447 63.157c4.591 3.972 8.682 11.762 8.682 23.704c0 17.126-.148 30.91-.148 35.126c0 3.407 2.304 7.398 8.792 6.14C219.37 232.5 256 184.537 256 128.002C256 57.307 198.691 0 128.001 0zm-80.06 182.34c-.282.636-1.283.827-2.194.39c-.929-.417-1.45-1.284-1.15-1.922c.276-.655 1.279-.838 2.205-.399c.93.418 1.46 1.293 1.139 1.931zm6.296 5.618c-.61.566-1.804.303-2.614-.591c-.837-.892-.994-2.086-.375-2.66c.63-.566 1.787-.301 2.626.591c.838.903 1 2.088.363 2.66zm4.32 7.188c-.785.545-2.067.034-2.86-1.104c-.784-1.138-.784-2.503.017-3.05c.795-.547 2.058-.055 2.861 1.075c.782 1.157.782 2.522-.019 3.08zm7.304 8.325c-.701.774-2.196.566-3.29-.49c-1.119-1.032-1.43-2.496-.726-3.27c.71-.776 2.213-.558 3.315.49c1.11 1.03 1.45 2.505.701 3.27zm9.442 2.81c-.31 1.003-1.75 1.459-3.199 1.033c-1.448-.439-2.395-1.613-2.103-2.626c.301-1.01 1.747-1.484 3.207-1.028c1.446.436 2.396 1.602 2.095 2.622zm10.744 1.193c.036 1.055-1.193 1.93-2.715 1.95c-1.53.034-2.769-.82-2.786-1.86c0-1.065 1.202-1.932 2.733-1.958c1.522-.03 2.768.818 2.768 1.868zm10.555-.405c.182 1.03-.875 2.088-2.387 2.37c-1.485.271-2.861-.365-3.05-1.386c-.184-1.056.893-2.114 2.376-2.387c1.514-.263 2.868.356 3.061 1.403z" ></path>
  </symbol>
  <symbol id="logos-phone" xmlns:xlink="http://www.w3.org/1999/xlink" xmlns="http://www.w3.org/2000/svg" role="img"  fill="currentColor"  viewBox="0 0 500 747.2" aria-hidden="true" focusable="false" >
    <path d="M239.2 597.2c-5.1-5-14.2-6.1-20.3-2.3l-48.3 30.3c-6.2 3.8-14.1 2-17.9-4.1L84.6 512.7c-3.8-6.1-1.9-14.1 4.1-17.9l45.4-28.5c6.1-3.8 8.8-12.3 6.1-19L94.8 336.5c-2.7-6.6-10.2-9.5-16.7-6.4 0 0-62 29.6-70.8 67.9C-28.4 554.6 69.4 710.5 226 746.4c38.3 8.8 91.6-52.9 91.6-52.9 4.7-5.5 4.4-14-.7-19l-77.7-77.3zm-22.3-114.3c-6.2 0-11.1-5-11.1-11.1 0-6.2 5-11.1 11.1-11.1 20.1 0 37.8-16.8 37.8-35.9 0-11-3.2-24.2-10.2-28.1C157 372.7 96 292.8 96 202 96 90.6 186.6 0 298 0s202 90.6 202 202c0 78.2-32.9 150.9-92.7 204.6-53.3 47.8-124.4 76.3-190.4 76.3zM298 22.2c-99.1 0-179.8 80.6-179.8 179.8 0 81.2 54.7 152.6 133 173.6.6.2 1.2.4 1.7.6 22.1 10.1 23.9 39.8 23.9 48.6 0 10.9-3.3 21.3-9 30.1 107.5-24.1 210-121.3 210-252.9 0-99.2-80.6-179.8-179.8-179.8z"></path>
    <path d="M250.4 202c0 12-9.7 21.7-21.7 21.7S207 214 207 202s9.7-21.7 21.7-21.7 21.7 9.7 21.7 21.7zm72.7 0c0 12-9.7 21.7-21.7 21.7s-21.7-9.7-21.7-21.7 9.7-21.7 21.7-21.7 21.7 9.7 21.7 21.7zm72.7 0c0 12-9.7 21.7-21.7 21.7s-21.7-9.7-21.7-21.7 9.7-21.7 21.7-21.7 21.7 9.7 21.7 21.7z" ></path>
  </symbol>
  <symbol id="logos-mail" version="1.0" xmlns="http://www.w3.org/2000/svg" role="img" fill="currentColor" viewBox="0 0 1280.000000 914.000000"
 preserveAspectRatio="xMidYMid meet">
<g transform="translate(0.000000,914.000000) scale(0.100000,-0.100000)" stroke="none">
<path d="M1195 9129 c-510 -65 -953 -428 -1121 -921 -71 -209 -65 100 -70
-3578 -2 -2270 0 -3345 7 -3410 26 -237 116 -468 257 -660 66 -91 204 -229
290 -290 144 -103 334 -190 511 -232 85 -20 117 -21 2261 -29 1196 -5 3552 -8
5235 -6 l3060 3 85 21 c137 34 207 60 335 123 409 202 684 594 744 1059 8 59
11 1079 11 3445 -1 2774 -3 3371 -14 3416 -42 173 -109 327 -202 467 -71 107
-203 246 -313 329 -88 67 -300 177 -399 208 -30 10 -95 27 -145 39 l-92 22
-5185 1 c-2961 1 -5215 -2 -5255 -7z m7845 -3165 c-1678 -1678 -2471 -2465
-2505 -2485 -69 -40 -150 -41 -217 -1 -29 17 -948 928 -2507 2485 l-2461 2457
5072 0 5073 0 -2455 -2456z m3070 -1326 l-5 -3423 -22 -77 c-58 -204 -153
-318 -326 -391 l-72 -30 -1727 1734 -1727 1734 1937 1938 c1065 1065 1939
1937 1942 1937 3 0 3 -1540 0 -3422z m-9430 1487 l1905 -1905 -1747 -1747
-1747 -1747 -62 29 c-123 59 -208 173 -246 330 -16 65 -18 301 -20 3508 -2
1890 0 3437 4 3437 5 0 865 -857 1913 -1905z m3005 -3000 c451 -455 620 -619
649 -631 50 -20 133 -20 182 1 28 11 207 184 634 610 l595 595 1503 -1503
c826 -826 1502 -1504 1502 -1507 0 -3 -1964 -5 -4365 -5 -2401 0 -4365 2
-4365 5 0 6 3043 3050 3050 3050 3 0 280 -276 615 -615z"/>
</g>
</symbol>
</svg>