<svg width="0" height="0" class="hidden">

<symbol id="logos-interrogation" version="1.1" xmlns="http://www.w3.org/2000/svg" xmlns:xlink="http://www.w3.org/1999/xlink" x="0px" y="0px"
	 viewBox="0 0 512 512" style="enable-background:new 0 0 512 512;" xml:space="preserve">
<g>
	<g>
		<path d="M256,0C114.62,0,0,114.62,0,256s114.62,256,256,256s256-114.62,256-256S397.38,0,256,0z M256,486.4
			C128.956,486.4,25.6,383.044,25.6,256S128.956,25.6,256,25.6S486.4,128.956,486.4,256S383.044,486.4,256,486.4z"/>
	</g>
</g>
<g>
	<g>
		<path d="M319.258,119.578c-13.858-11.981-31.718-17.98-53.581-17.98h-4.403c-22.673,0-42.001,7.074-58.001,21.197
			c-17.604,15.753-26.402,36.804-26.402,63.198c0,4.275,1.203,7.603,3.601,10.001c2.398,2.15,5.325,3.072,8.798,2.799
			c3.2,0,5.999-1.203,8.397-3.601c2.662-2.654,4.002-5.854,4.002-9.6c0-14.925,3.465-27.853,10.402-38.801
			c10.129-15.454,26.522-23.202,49.203-23.202c19.2,0,33.724,5.197,43.597,15.599c8.26,8.55,12.527,19.601,12.8,33.203
			c0,11.998-2.534,22.673-7.603,32c-5.871,10.675-16.401,22.4-31.599,35.2c-12.8,10.402-21.734,21.999-26.803,34.799
			c-5.077,12.271-7.603,27.878-7.603,46.797c0,3.746,1.203,6.801,3.601,9.199c2.398,2.15,5.325,3.2,8.798,3.2
			c3.2,0,5.999-1.05,8.397-3.2c2.662-2.398,4.002-5.453,4.002-9.199c0-18.654,2.261-33.05,6.801-43.204
			c4.523-9.6,13.329-19.729,26.402-30.404c14.404-12.254,24.798-24.124,31.198-35.601c6.127-11.204,9.199-23.723,9.199-37.598
			C342.46,150.929,334.72,132.651,319.258,119.578z"/>
	</g>
</g>
<g>
	<g>
		<circle cx="256" cy="384" r="25.6"/>
	</g>
</g>
<g>
</g>
<g>
</g>
<g>
</g>
<g>
</g>
<g>
</g>
<g>
</g>
<g>
</g>
<g>
</g>
<g>
</g>
<g>
</g>
<g>
</g>
<g>
</g>
<g>
</g>
<g>
</g>
<g>
</g>
</symbol>

<symbol id="logos-addition" role="img" fill="currentColor" xmlns="http://www.w3.org/2000/svg" xmlns:xlink="http://www.w3.org/1999/xlink"
	 viewBox="0 0 485 485" xml:space="preserve">
<polygon points="485,227.5 257.5,227.5 257.5,0 227.5,0 227.5,227.5 0,227.5 0,257.5 227.5,257.5 227.5,485 257.5,485 257.5,257.5 
	485,257.5 "/>
<g>
</g>
<g>
</g>
<g>
</g>
<g>
</g>
<g>
</g>
<g>
</g>
<g>
</g>
<g>
</g>
<g>
</g>
<g>
</g>
<g>
</g>
<g>
</g>
<g>
</g>
<g>
</g>
<g>
</g>
</symbol>
<symbol id="logos-king" role="img" fill="currentColor" viewBox="0 0 512 512" xmlns="http://www.w3.org/2000/svg"><path d="M405.995 477.15h-300v-60h300v60zm-10.3-107.13h-279.4a96.88 96.88 0 0 1 6.65 31.12h266.1a96.88 96.88 0 0 1 6.65-31.12zm-139.7-241.06a35.76 35.76 0 0 0-35.76 35.76c0 50.16 35.76 99.34 35.76 99.34s35.76-49.18 35.76-99.34a35.76 35.76 0 0 0-35.76-35.76zm8-15.38V94.24h18.36v-16h-18.36V54.85h-16v23.39h-18.36v16h18.36v19.38a51.9 51.9 0 0 1 16-.04zm81.64 51.36a98.74 98.74 0 0 0-38.13 7.61c-3.23 51.75-37.07 98.85-38.58 100.93l-4.93 6.76V354h140c16.57-26.15 40.78-42.41 40.78-90a99.13 99.13 0 0 0-99.14-99.07zm-141.16 7.61a99.16 99.16 0 0 0-137.25 91.51c0 47.55 24.21 63.82 40.78 90h139.99v-73.82l-4.94-6.79c-1.51-2.05-35.34-49.15-38.58-100.9z"/></symbol>
<symbol id="logos-queen" role="img" fill="currentColor" viewBox="0 0 512 512" xmlns="http://www.w3.org/2000/svg"><path  d="M477.518 181.966a25 25 0 0 1-34.91 23l-62.29 150.26h-248.92l-62.24-150.19a25 25 0 1 1 9.73-7.29l87 71.2 20.92-126.4a25 25 0 1 1 14.7-1.85l54.31 117 54.42-117.3a25 25 0 1 1 14.58 2.08l20.93 126.42 87.26-71.3a25 25 0 1 1 44.51-15.63zm-71.66 241.25h-300v60h300v-60zm-27.75-52h-244.22v36h244.22v-36z"/>
</symbol>
<symbol id="logos-rock" role="img" fill="currentColor" viewBox="0 0 512 512" xmlns="http://www.w3.org/2000/svg"><path  d="M406 484.7H106v-60h300v60zm-56.67-330.83h-50.05V91.3h-82.39v62.57h-54.22V91.3h-54.23v113.67h295.12V91.3h-54.23v62.57zm23.35 67.23H139.32v187.6h233.36V221.1z"/>
</symbol>
<symbol version="1.1" id="logos-knight" role="img" fill="currentColor" xmlns="http://www.w3.org/2000/svg" xmlns:xlink="http://www.w3.org/1999/xlink" x="0px" y="0px"
	 viewBox="0 0 32 32" style="enable-background:new 0 0 32 32;" xml:space="preserve">
<g>
	<path d="M7.2,16l1.1-0.2c1.6-0.3,3.3-0.5,5-0.7c-2.4,2.3-3.9,5.3-4.7,7.9h14.7c0.4-1.5,1.1-3,2.3-4.1l0.2-0.2
		c0.2-0.2,0.3-0.4,0.3-0.6C26.6,13,24.2,8,19.8,5.3c-0.8-1.4-2-2.4-3.6-2.9l-0.9-0.3C15,2,14.7,2,14.4,2.2C14.2,2.4,14,2.7,14,3v2.4
		l-1.4,0.7C12.2,6.3,12,6.6,12,7v0.5l-4.7,3.1C6.5,11.1,6,12.1,6,13.1V15c0,0.3,0.1,0.6,0.4,0.8C6.6,16,6.9,16,7.2,16z"/>
	<path d="M6.8,25C6.3,25.5,6,26.2,6,27v2c0,0.6,0.4,1,1,1h18c0.6,0,1-0.4,1-1v-2c0-0.8-0.3-1.5-0.8-2H6.8z"/>
</g>
</symbol>
<symbol id="logos-bishop" role="img" fill="currentColor" viewBox="-96 0 512 512" xmlns="http://www.w3.org/2000/svg"><path d="M8 287.88c0 51.64 22.14 73.83 56 84.6V416h192v-43.52c33.86-10.77 56-33 56-84.6 0-30.61-10.73-67.1-26.69-102.56L185 285.65a8 8 0 0 1-11.31 0l-11.31-11.31a8 8 0 0 1 0-11.31L270.27 155.1c-20.8-37.91-46.47-72.1-70.87-92.59C213.4 59.09 224 47.05 224 32a32 32 0 0 0-32-32h-64a32 32 0 0 0-32 32c0 15 10.6 27.09 24.6 30.51C67.81 106.8 8 214.5 8 287.88zM304 448H16a16 16 0 0 0-16 16v32a16 16 0 0 0 16 16h288a16 16 0 0 0 16-16v-32a16 16 0 0 0-16-16z"/>
</symbol>
<symbol version="1.1" id="logos-pawn" role="img" fill="currentColor" xmlns="http://www.w3.org/2000/svg" xmlns:xlink="http://www.w3.org/1999/xlink" x="0px" y="0px"
	  viewBox="0 0 216.062 216.062" style="enable-background:new 0 0 216.062 216.062;"
	 xml:space="preserve">
<g>
	<path d="M170.07,190.338v25.724H45.992v-25.724H170.07z M63.23,181.176h89.604v-25.723H63.23V181.176z M76.849,80.986v64.926
		h62.368V80.986c9.41-8.505,15.344-20.779,15.344-34.454c0-25.7-20.823-46.533-46.529-46.533S61.499,20.833,61.499,46.533
		C61.499,60.213,67.442,72.481,76.849,80.986z"/>
</g>
<g>
</g>
<g>
</g>
<g>
</g>
<g>
</g>
<g>
</g>
<g>
</g>
<g>
</g>
<g>
</g>
<g>
</g>
<g>
</g>
<g>
</g>
<g>
</g>
<g>
</g>
<g>
</g>
<g>
</g>
</symbol>
<symbol id="logos-cross" xmlns="http://www.w3.org/2000/svg" role="img" fill="currentColor" viewBox="0 0 512 512"><path d="M0 256C0 114.6 114.6 0 256 0C397.4 0 512 114.6 512 256C512 397.4 397.4 512 256 512C114.6 512 0 397.4 0 256zM175 208.1L222.1 255.1L175 303C165.7 312.4 165.7 327.6 175 336.1C184.4 346.3 199.6 346.3 208.1 336.1L255.1 289.9L303 336.1C312.4 346.3 327.6 346.3 336.1 336.1C346.3 327.6 346.3 312.4 336.1 303L289.9 255.1L336.1 208.1C346.3 199.6 346.3 184.4 336.1 175C327.6 165.7 312.4 165.7 303 175L255.1 222.1L208.1 175C199.6 165.7 184.4 165.7 175 175C165.7 184.4 165.7 199.6 175 208.1V208.1z"/></symbol>
  <symbol id="logos-menu-burger" xmlns="http://www.w3.org/2000/svg" role="img" fill="currentColor" viewBox="0 0 16 16">
    <path d="M 1 2 L 1 3 L 14 3 L 14 2 Z M 1 7 L 1 8 L 14 8 L 14 7 Z M 1 12 L 1 13 L 14 13 L 14 12 Z"/>
  </symbol>
   <symbol id="logos-linkedin" xmlns="http://www.w3.org/2000/svg" role="img" fill="currentColor" viewBox="0 0 48 48" >
    <path  d="M8.421 14h.052 0C11.263 14 13 12 13 9.5 12.948 6.945 11.263 5 8.526 5 5.789 5 4 6.945 4 9.5 4 12 5.736 14 8.421 14zM4 17H13V43H4zM44 26.5c0-5.247-4.253-9.5-9.5-9.5-3.053 0-5.762 1.446-7.5 3.684V17h-9v26h9V28h0c0-2.209 1.791-4 4-4s4 1.791 4 4v15h9C44 43 44 27.955 44 26.5z"/>
  </symbol>
  <symbol id="logos-instagram" xmlns:xlink="http://www.w3.org/1999/xlink" xmlns="http://www.w3.org/2000/svg" role="img" fill="currentColor" viewBox="0 0 494 494" aria-hidden="true" focusable="false" >
    <path d="M247 45.1c65.4 0 73.2.2 99 1.4 23.9 1.1 36.9 5.1 45.5 8.4 11.4 4.4 19.6 9.8 28.2 18.3 8.6 8.6 13.9 16.7 18.3 28.2 3.4 8.6 7.3 21.6 8.4 45.5 1.2 25.8 1.4 33.6 1.4 99s-.2 73.2-1.4 99c-1.1 23.9-5.1 36.9-8.4 45.5-4.4 11.4-9.8 19.6-18.3 28.2-8.6 8.6-16.7 13.9-28.2 18.3-8.6 3.4-21.6 7.3-45.5 8.4-25.8 1.2-33.6 1.4-99 1.4s-73.2-.2-99-1.4c-23.9-1.1-36.9-5.1-45.5-8.4-11.4-4.4-19.6-9.8-28.2-18.3-8.6-8.6-13.9-16.7-18.3-28.2-3.4-8.6-7.3-21.6-8.4-45.5-1.2-25.8-1.4-33.6-1.4-99s.2-73.2 1.4-99c1.1-23.9 5.1-36.9 8.4-45.5 4.4-11.4 9.8-19.6 18.3-28.2 8.6-8.6 16.7-13.9 28.2-18.3 8.6-3.4 21.6-7.3 45.5-8.4 25.8-1.1 33.6-1.4 99-1.4M247 1c-66.5 0-74.9.3-101 1.5-26.1 1.2-43.9 5.3-59.5 11.4-16.1 6.3-29.8 14.6-43.4 28.3-13.6 13.6-22 27.3-28.3 43.4-6 15.5-10.1 33.3-11.3 59.4C2.3 171.1 2 179.5 2 246s.3 74.9 1.5 101c1.2 26.1 5.3 43.9 11.4 59.5 6.3 16.1 14.6 29.8 28.3 43.4 13.6 13.6 27.3 22 43.4 28.3 15.6 6.1 33.4 10.2 59.5 11.4 26.1 1.2 34.5 1.5 101 1.5s74.9-.3 101-1.5c26.1-1.2 43.9-5.3 59.5-11.4 16.1-6.3 29.8-14.6 43.4-28.3 13.6-13.6 22-27.3 28.3-43.4 6.1-15.6 10.2-33.4 11.4-59.5 1.2-26.1 1.5-34.5 1.5-101s-.3-74.9-1.5-101c-1.2-26.1-5.3-43.9-11.4-59.5-6.3-16.1-14.6-29.8-28.3-43.4-13.6-13.6-27.3-22-43.4-28.3-15.7-6-33.5-10.1-59.6-11.3C321.9 1.3 313.5 1 247 1z"></path>
    <path d="M245 119.2c-69.5 0-125.8 56.3-125.8 125.8S175.5 370.8 245 370.8 370.8 314.5 370.8 245 314.5 119.2 245 119.2zm0 207.5c-45.1 0-81.7-36.6-81.7-81.7s36.6-81.7 81.7-81.7 81.7 36.6 81.7 81.7-36.6 81.7-81.7 81.7z"></path>
    <circle cx="375.8" cy="114.2" r="29.4" fill="#FFFFFF"></circle>
  </symbol>
    <symbol id="logos-facebook" xmlns:xlink="http://www.w3.org/1999/xlink" xmlns="http://www.w3.org/2000/svg" role="img"  fill="currentColor"  viewBox="0 0 500 1074.3" aria-hidden="true" focusable="false" >
    <path d="M108.9 212.9v148.5H0v178.2h108.9v534.7h222.8V539.6h148.5s14.9-84.2 19.8-183.2H331.7V232.6s24.8-44.6 49.5-44.6H500V-.1c-59.4 5-133.7 5-163.4 5-232.6.1-227.7 183.2-227.7 208z"></path>
  </symbol>
  <symbol id="logos-github" xmlns="http://www.w3.org/2000/svg" xmlns:xlink="http://www.w3.org/1999/xlink" aria-hidden="true" role="img" fill="currentColor" preserveAspectRatio="xMidYMid meet" viewBox="0 0 256 250" >
    <path d="M128.001 0C57.317 0 0 57.307 0 128.001c0 56.554 36.676 104.535 87.535 121.46c6.397 1.185 8.746-2.777 8.746-6.158c0-3.052-.12-13.135-.174-23.83c-35.61 7.742-43.124-15.103-43.124-15.103c-5.823-14.795-14.213-18.73-14.213-18.73c-11.613-7.944.876-7.78.876-7.78c12.853.902 19.621 13.19 19.621 13.19c11.417 19.568 29.945 13.911 37.249 10.64c1.149-8.272 4.466-13.92 8.127-17.116c-28.431-3.236-58.318-14.212-58.318-63.258c0-13.975 5-25.394 13.188-34.358c-1.329-3.224-5.71-16.242 1.24-33.874c0 0 10.749-3.44 35.21 13.121c10.21-2.836 21.16-4.258 32.038-4.307c10.878.049 21.837 1.47 32.066 4.307c24.431-16.56 35.165-13.12 35.165-13.12c6.967 17.63 2.584 30.65 1.255 33.873c8.207 8.964 13.173 20.383 13.173 34.358c0 49.163-29.944 59.988-58.447 63.157c4.591 3.972 8.682 11.762 8.682 23.704c0 17.126-.148 30.91-.148 35.126c0 3.407 2.304 7.398 8.792 6.14C219.37 232.5 256 184.537 256 128.002C256 57.307 198.691 0 128.001 0zm-80.06 182.34c-.282.636-1.283.827-2.194.39c-.929-.417-1.45-1.284-1.15-1.922c.276-.655 1.279-.838 2.205-.399c.93.418 1.46 1.293 1.139 1.931zm6.296 5.618c-.61.566-1.804.303-2.614-.591c-.837-.892-.994-2.086-.375-2.66c.63-.566 1.787-.301 2.626.591c.838.903 1 2.088.363 2.66zm4.32 7.188c-.785.545-2.067.034-2.86-1.104c-.784-1.138-.784-2.503.017-3.05c.795-.547 2.058-.055 2.861 1.075c.782 1.157.782 2.522-.019 3.08zm7.304 8.325c-.701.774-2.196.566-3.29-.49c-1.119-1.032-1.43-2.496-.726-3.27c.71-.776 2.213-.558 3.315.49c1.11 1.03 1.45 2.505.701 3.27zm9.442 2.81c-.31 1.003-1.75 1.459-3.199 1.033c-1.448-.439-2.395-1.613-2.103-2.626c.301-1.01 1.747-1.484 3.207-1.028c1.446.436 2.396 1.602 2.095 2.622zm10.744 1.193c.036 1.055-1.193 1.93-2.715 1.95c-1.53.034-2.769-.82-2.786-1.86c0-1.065 1.202-1.932 2.733-1.958c1.522-.03 2.768.818 2.768 1.868zm10.555-.405c.182 1.03-.875 2.088-2.387 2.37c-1.485.271-2.861-.365-3.05-1.386c-.184-1.056.893-2.114 2.376-2.387c1.514-.263 2.868.356 3.061 1.403z" ></path>
  </symbol>
  <symbol id="logos-phone" xmlns:xlink="http://www.w3.org/1999/xlink" xmlns="http://www.w3.org/2000/svg" role="img"  fill="currentColor"  viewBox="0 0 500 747.2" aria-hidden="true" focusable="false" >
    <path d="M239.2 597.2c-5.1-5-14.2-6.1-20.3-2.3l-48.3 30.3c-6.2 3.8-14.1 2-17.9-4.1L84.6 512.7c-3.8-6.1-1.9-14.1 4.1-17.9l45.4-28.5c6.1-3.8 8.8-12.3 6.1-19L94.8 336.5c-2.7-6.6-10.2-9.5-16.7-6.4 0 0-62 29.6-70.8 67.9C-28.4 554.6 69.4 710.5 226 746.4c38.3 8.8 91.6-52.9 91.6-52.9 4.7-5.5 4.4-14-.7-19l-77.7-77.3zm-22.3-114.3c-6.2 0-11.1-5-11.1-11.1 0-6.2 5-11.1 11.1-11.1 20.1 0 37.8-16.8 37.8-35.9 0-11-3.2-24.2-10.2-28.1C157 372.7 96 292.8 96 202 96 90.6 186.6 0 298 0s202 90.6 202 202c0 78.2-32.9 150.9-92.7 204.6-53.3 47.8-124.4 76.3-190.4 76.3zM298 22.2c-99.1 0-179.8 80.6-179.8 179.8 0 81.2 54.7 152.6 133 173.6.6.2 1.2.4 1.7.6 22.1 10.1 23.9 39.8 23.9 48.6 0 10.9-3.3 21.3-9 30.1 107.5-24.1 210-121.3 210-252.9 0-99.2-80.6-179.8-179.8-179.8z"></path>
    <path d="M250.4 202c0 12-9.7 21.7-21.7 21.7S207 214 207 202s9.7-21.7 21.7-21.7 21.7 9.7 21.7 21.7zm72.7 0c0 12-9.7 21.7-21.7 21.7s-21.7-9.7-21.7-21.7 9.7-21.7 21.7-21.7 21.7 9.7 21.7 21.7zm72.7 0c0 12-9.7 21.7-21.7 21.7s-21.7-9.7-21.7-21.7 9.7-21.7 21.7-21.7 21.7 9.7 21.7 21.7z" ></path>
  </symbol>
  <symbol id="logos-mail" version="1.0" xmlns="http://www.w3.org/2000/svg" role="img" fill="currentColor" viewBox="0 0 1280.000000 914.000000"
 preserveAspectRatio="xMidYMid meet">
<g transform="translate(0.000000,914.000000) scale(0.100000,-0.100000)" stroke="none">
<path d="M1195 9129 c-510 -65 -953 -428 -1121 -921 -71 -209 -65 100 -70
-3578 -2 -2270 0 -3345 7 -3410 26 -237 116 -468 257 -660 66 -91 204 -229
290 -290 144 -103 334 -190 511 -232 85 -20 117 -21 2261 -29 1196 -5 3552 -8
5235 -6 l3060 3 85 21 c137 34 207 60 335 123 409 202 684 594 744 1059 8 59
11 1079 11 3445 -1 2774 -3 3371 -14 3416 -42 173 -109 327 -202 467 -71 107
-203 246 -313 329 -88 67 -300 177 -399 208 -30 10 -95 27 -145 39 l-92 22
-5185 1 c-2961 1 -5215 -2 -5255 -7z m7845 -3165 c-1678 -1678 -2471 -2465
-2505 -2485 -69 -40 -150 -41 -217 -1 -29 17 -948 928 -2507 2485 l-2461 2457
5072 0 5073 0 -2455 -2456z m3070 -1326 l-5 -3423 -22 -77 c-58 -204 -153
-318 -326 -391 l-72 -30 -1727 1734 -1727 1734 1937 1938 c1065 1065 1939
1937 1942 1937 3 0 3 -1540 0 -3422z m-9430 1487 l1905 -1905 -1747 -1747
-1747 -1747 -62 29 c-123 59 -208 173 -246 330 -16 65 -18 301 -20 3508 -2
1890 0 3437 4 3437 5 0 865 -857 1913 -1905z m3005 -3000 c451 -455 620 -619
649 -631 50 -20 133 -20 182 1 28 11 207 184 634 610 l595 595 1503 -1503
c826 -826 1502 -1504 1502 -1507 0 -3 -1964 -5 -4365 -5 -2401 0 -4365 2
-4365 5 0 6 3043 3050 3050 3050 3 0 280 -276 615 -615z"/>
</g>
</symbol>
  <symbol id="logos-download" xmlns:xlink="http://www.w3.org/1999/xlink" xmlns="http://www.w3.org/2000/svg" viewBox="0 0 20 20">
  <path d="M13 8V2H7v6H2l8 8 8-8h-5zM0 18h20v2H0v-2z" fill="currentColor">
  </path>
  </symbol>
  <symbol id="logos-team" fill="currentColor" xmlns="http://www.w3.org/2000/svg"  viewBox="0 0 64 64">
  <path d="M 45 7 A 8 8 0 0 0 38.90625 20.169922 L 33.279297 29.115234 L 21.707031 29.886719 A 8 8 0 0 0 14 24 A 8 8 0 0 0 14 40 A 8 8 0 0 0 21.714844 34.113281 L 33.279297 34.884766 L 38.90625 43.830078 A 8 8 0 0 0 45 57 A 8 8 0 0 0 45 41 A 8 8 0 0 0 42.550781 41.388672 L 38.287109 32 L 42.552734 22.607422 A 8 8 0 0 0 45 23 A 8 8 0 0 0 45 7 z"/>
  </symbol>
  <symbol id="logos-leadership" fill="currentColor" xmlns="http://www.w3.org/2000/svg"  viewBox="0 0 64 64">
  <path d="M 32.230469 5 C 23.848469 4.9 16.498672 10.593594 13.888672 18.558594 C 11.127672 26.983594 15.386047 33.640219 18.623047 38.699219 C 20.014047 40.873219 21.260672 42.820437 21.763672 44.523438 C 22.019672 45.390437 22.785453 46 23.689453 46 L 25 46 C 25 43.099 23.216391 40.311031 21.150391 37.082031 C 18.735391 33.309031 16 29.033 16 24 C 16 15.25 23.059203 8.118 31.783203 8 C 38.659203 7.909 44.596297 12.415656 47.029297 18.847656 C 49.811297 26.202656 46.048609 32.083031 42.849609 37.082031 C 40.783609 40.311031 39 43.099 39 46 L 40.310547 46 C 41.214547 46 41.980328 45.389437 42.236328 44.523438 C 42.740328 42.820438 43.985953 40.875172 45.376953 38.701172 C 47.882953 34.785172 51 29.911 51 24 C 51 13.6 42.600469 5.125 32.230469 5 z M 8.6542969 6.5488281 L 6.8105469 8.9160156 L 11.345703 12.451172 L 13.189453 10.083984 L 8.6542969 6.5488281 z M 55.347656 6.5527344 L 50.810547 10.085938 L 52.654297 12.453125 L 57.191406 8.9179688 L 55.347656 6.5527344 z M 2 23 L 2 26 L 7 26 L 7 23 L 2 23 z M 57 23 L 57 26 L 62 26 L 62 23 L 57 23 z M 26.802734 24.755859 L 26.447266 24.957031 C 25.207266 25.663031 24.681547 27.165 25.185547 28.5 C 26.312547 31.485 28 37.389 28 46 L 31 46 C 31 32.26 26.973734 25.056859 26.802734 24.755859 z M 37.197266 24.755859 C 37.026266 25.055859 33 32.26 33 46 L 36 46 C 36 37.388 37.6865 31.483 38.8125 28.5 C 39.3165 27.167 38.793641 25.667938 37.556641 24.960938 L 37.197266 24.755859 z M 52.654297 35.548828 L 50.810547 37.916016 L 55.345703 41.451172 L 57.189453 39.083984 L 52.654297 35.548828 z M 11.34375 35.550781 L 6.8085938 39.085938 L 8.6523438 41.451172 L 13.1875 37.917969 L 11.34375 35.550781 z M 23 49 L 23.609375 53.261719 C 23.844375 54.909719 25.076172 56.238609 26.701172 56.599609 L 28.115234 56.914062 C 28.529925 58.680974 30.106665 60 32 60 C 33.893335 60 35.470075 58.680974 35.884766 56.914062 L 37.298828 56.599609 C 38.923828 56.238609 40.155625 54.909719 40.390625 53.261719 L 41 49 L 33 49 L 31 49 L 23 49 z"/>
  </symbol>
  <symbol id="logos-logic" fill="currentColor" xmlns="http://www.w3.org/2000/svg"  viewBox="0 0 64 64">
  <path d="M49.544,41.735c-2.933,0-7.112-1.593-5.866-7.821c0.978-4.888,3.911-5.866,5.866-5.866c1.807,0,3.477,0.668,4.867,1.51	c0.674,0.408,1.53-0.074,1.5-0.861l-0.424-11.298c-0.042-1.12-1.015-1.975-2.131-1.874l-10.697,0.97	c-0.811,0.074-1.369-0.83-0.91-1.503c1.028-1.505,1.928-3.421,1.928-5.519c0-2.933-1.681-7.493-7.821-5.866	c-4.819,1.277-5.866,3.911-5.866,5.866c0,2.173,0.964,4.149,2.036,5.676c0.477,0.68-0.046,1.603-0.874,1.536l-14.616-1.171	c-1.166-0.093-2.152,0.851-2.11,2.019l0.274,7.622c0.027,0.743-0.746,1.23-1.415,0.907c-1.154-0.558-2.45-0.947-3.827-0.947	c-2.933,0-7.493,1.681-5.866,7.821c1.277,4.819,3.911,5.866,5.866,5.866c1.435,0,2.784-0.422,3.975-1.018	c0.667-0.334,1.447,0.151,1.424,0.896l-0.457,14.984c-0.03,1,0.698,1.861,1.689,1.997l7.061,0.879	c0.796,0.109,1.385-0.739,0.987-1.438c-0.757-1.328-1.333-2.89-1.333-4.569c0-2.933,0.897-5.866,6.844-5.866	c4.888,0,6.844,2.933,6.844,5.866c0,1.848-0.698,3.552-1.567,4.96c-0.413,0.67,0.063,1.528,0.85,1.505l17.799-0.545	c1.032-0.031,1.862-0.858,1.896-1.89l0.449-13.488c0.026-0.785-0.828-1.265-1.5-0.857C53.029,41.065,51.355,41.735,49.544,41.735z"/>
  </symbol>
  <symbol id="logos-patience" fill="currentColor" xmlns="http://www.w3.org/2000/svg"  viewBox="0 0 64 64">
  <path d="M 32 6 C 17.641 6 6 17.641 6 32 C 6 46.359 17.641 58 32 58 C 46.359 58 58 46.359 58 32 C 58 17.641 46.359 6 32 6 z M 32 10 C 44.15 10 54 19.85 54 32 C 54 44.15 44.15 54 32 54 C 19.85 54 10 44.15 10 32 C 10 19.85 19.85 10 32 10 z M 30.5 14 L 31 18 L 33 18 L 33.5 14 L 30.5 14 z M 44.021484 18.564453 L 33.25 28.203125 A 4 4 0 0 0 32 28 A 4 4 0 0 0 32 36 A 4 4 0 0 0 32.722656 35.931641 L 40.816406 42.638672 L 42.640625 40.816406 L 35.931641 32.720703 A 4 4 0 0 0 35.796875 30.75 L 45.435547 19.978516 L 44.021484 18.564453 z M 14 30.5 L 14 33.5 L 18 33 L 18 31 L 14 30.5 z M 50 30.5 L 46 31 L 46 33 L 50 33.5 L 50 30.5 z M 31 46 L 30.5 50 L 33.5 50 L 33 46 L 31 46 z"/>
  </symbol>
  <symbol id="logos-pedagogy" fill="currentColor" xmlns="http://www.w3.org/2000/svg"  viewBox="0 0 64 64">
  <path d="M 8.6835938 6.9511719 C 7.0117969 6.9495938 6 7 6 7 L 6 13.128906 C 3.51 13.580906 2 14 2 14 L 2 56 C 2 56 13.861628 52.463626 27 54.822266 L 27 57 C 27 57 29 58 32 58 C 35 58 37 57 37 57 L 37 54.822266 C 50.138372 52.463626 62 56 62 56 L 62 14 C 62 14 60.49 13.580906 58 13.128906 L 58 7 C 58 7 41.801 6.1937187 32 11.136719 C 24.64925 7.4294687 13.698984 6.9559062 8.6835938 6.9511719 z M 9 11 C 21.064226 11 27.206721 12.781714 30 13.966797 L 30 46 L 34 45 L 34 13.966797 C 36.793279 12.781714 42.935774 11 55 11 L 55 48 C 37 48 32 52 32 52 C 32 52 27 48 9 48 L 9 11 z"/>
  </symbol>
  <symbol id="logos-relational" fill="currentColor" xmlns="http://www.w3.org/2000/svg"  viewBox="0 0 64 64">
  <path d="M 32 6 A 26 26 0 0 0 10.429688 46.460938 L 8 58 L 20.59375 55.347656 A 26 26 0 0 0 32 58 A 26 26 0 0 0 32 6 z"/>
  </symbol>


  <symbol id="logos-postman" xmlns="http://www.w3.org/2000/svg" xmlns:xlink="http://www.w3.org/1999/xlink" aria-hidden="true" role="img" preserveAspectRatio="xMidYMid meet" viewBox="0 0 256 256" >
  <rect width="256" height="256" fill="#FF6C37" rx="60"/>
    <path d="M254.953 144.253c8.959-70.131-40.569-134.248-110.572-143.206C74.378-7.912 10.005 41.616 1.047 111.619c-8.959 70.003 40.569 134.248 110.572 143.334c70.131 8.959 134.248-40.569 143.334-110.7z" fill="#FF6C37"></path>
    <path d="M174.2 82.184l-54.007 54.007l-15.229-15.23c53.11-53.11 58.358-48.503 69.236-38.777z" fill="#FFF"></path>
    <path d="M120.193 137.47c-.384 0-.64-.128-.895-.384l-15.358-15.229a1.237 1.237 0 0 1 0-1.792c54.007-54.006 59.638-48.887 71.028-38.649c.255.256.383.512.383.896s-.128.64-.383.896l-54.007 53.878c-.128.256-.512.384-.768.384zm-13.437-16.509l13.437 13.438l52.087-52.087c-9.47-8.446-15.87-11.006-65.524 38.65z" fill="#FF6C37"></path>
    <path d="M135.679 151.676l-14.718-14.718l54.007-54.006c14.46 14.59-7.167 38.265-39.29 68.724z" fill="#FFF"></path>
    <path d="M135.679 152.956c-.384 0-.64-.128-.896-.384l-14.718-14.718c-.256-.256-.256-.512-.256-.896s.128-.64.384-.895L174.2 82.056a1.237 1.237 0 0 1 1.791 0a15.58 15.58 0 0 1 4.991 11.902c-.256 14.206-16.38 32.25-44.28 58.614c-.383.256-.767.384-1.023.384zm-12.926-15.998c8.19 8.319 11.646 11.646 12.926 12.926c21.5-20.476 42.36-41.464 42.488-55.926c.128-3.327-1.152-6.655-3.327-9.214l-52.087 52.214z" fill="#FF6C37"></path>
    <path d="M105.22 121.345l10.878 10.878c.256.256.256.512 0 .768c-.128.128-.128.128-.256.128l-22.524 4.863c-1.152.128-2.175-.64-2.431-1.791c-.128-.64.128-1.28.512-1.664l13.053-13.054c.256-.256.64-.384.768-.128z" fill="#FFF"></path>
    <path d="M92.934 139.262c-1.92 0-3.327-1.536-3.327-3.455c0-.896.384-1.792 1.024-2.432l13.053-13.054c.768-.64 1.792-.64 2.56 0l10.878 10.878c.768.64.768 1.792 0 2.56c-.256.256-.512.384-.896.512l-22.524 4.863c-.256 0-.512.128-.768.128zm11.902-16.51l-12.542 12.543c-.256.256-.383.64-.128 1.024c.128.383.512.511.896.383l21.116-4.607l-9.342-9.342z" fill="#FF6C37"></path>
    <path d="M202.739 52.238c-8.191-7.935-21.373-7.679-29.307.64c-7.935 8.318-7.679 21.372.64 29.306A20.678 20.678 0 0 0 199.155 85l-14.59-14.59l18.174-18.172z" fill="#FFF"></path>
    <path d="M188.405 89.223c-12.158 0-22.012-9.854-22.012-22.012c0-12.158 9.854-22.012 22.012-22.012c5.631 0 11.134 2.176 15.23 6.143c.255.256.383.512.383.896s-.128.64-.384.895L186.357 70.41l13.566 13.566c.512.512.512 1.28 0 1.792l-.256.256c-3.327 2.047-7.295 3.199-11.262 3.199zm0-41.337c-10.75 0-19.452 8.703-19.324 19.453c0 10.75 8.702 19.452 19.452 19.324c2.944 0 5.887-.64 8.575-2.047l-13.438-13.31c-.256-.256-.384-.512-.384-.896s.128-.64.384-.895l17.149-17.15c-3.456-2.943-7.807-4.479-12.414-4.479z" fill="#FF6C37"></path>
    <path d="M203.122 52.622l-.255-.256l-18.301 18.044l14.461 14.462c1.408-.896 2.816-1.92 3.967-3.072a20.51 20.51 0 0 0 .128-29.178z" fill="#FFF"></path>
    <path d="M199.155 86.28c-.384 0-.64-.128-.896-.384l-14.589-14.59c-.256-.256-.384-.512-.384-.896s.128-.64.384-.895l18.173-18.173a1.237 1.237 0 0 1 1.791 0l.384.256c8.575 8.574 8.575 22.396.128 31.098c-1.28 1.28-2.687 2.432-4.223 3.328c-.384.128-.64.256-.768.256zm-12.798-15.87l12.926 12.926c1.024-.64 2.048-1.536 2.816-2.304c7.294-7.294 7.678-19.196.64-26.875L186.357 70.41z" fill="#FF6C37"></path>
    <path d="M176.375 84.488a7.879 7.879 0 0 0-11.134 0l-48.247 48.247l8.063 8.063l51.062-44.792c3.328-2.816 3.584-7.807.768-11.134c-.256-.128-.384-.256-.512-.384z" fill="#FFF"></path>
    <path d="M124.929 142.077c-.384 0-.64-.128-.896-.383l-8.063-8.063a1.237 1.237 0 0 1 0-1.792l48.247-48.247a9.115 9.115 0 0 1 12.926 0a9.115 9.115 0 0 1 0 12.926l-.384.384l-51.063 44.792c-.128.255-.384.383-.767.383zm-6.143-9.342l6.27 6.271l50.167-44.024c2.816-2.304 3.072-6.527.768-9.342c-2.303-2.816-6.526-3.072-9.342-.768c-.128.128-.256.256-.512.384l-47.351 47.48z" fill="#FF6C37"></path>
    <path d="M80.009 187.637c-.512.256-.768.768-.64 1.28l2.175 9.214c.512 1.28-.256 2.816-1.663 3.2c-1.024.384-2.176 0-2.816-.768l-14.077-13.95l45.943-45.943l15.87.256l10.75 10.75c-2.56 2.175-18.045 17.149-55.542 35.961z" fill="#FFF"></path>
    <path d="M78.985 202.61c-1.024 0-2.048-.383-2.688-1.151l-13.95-13.95c-.255-.256-.383-.512-.383-.896c0-.383.128-.64.384-.895l45.944-45.944c.256-.256.64-.384.895-.384l15.87.256c.383 0 .64.128.895.384l10.75 10.75c.256.256.384.64.384 1.024s-.128.64-.512.896l-.895.767c-13.566 11.902-31.995 23.804-54.902 35.194l2.175 9.086c.384 1.664-.384 3.456-1.92 4.352c-.767.384-1.407.512-2.047.512zm-14.078-15.997l13.182 13.054c.384.64 1.152.896 1.792.512c.64-.384.896-1.152.512-1.792l-2.176-9.214c-.256-1.152.256-2.176 1.28-2.688c22.652-11.39 40.952-23.163 54.39-34.81l-9.47-9.47l-14.718-.256l-44.792 44.664z" fill="#FF6C37"></path>
    <path d="M52.11 197.62l11.006-11.007l16.38 16.381l-26.107-1.791c-1.151-.128-1.92-1.152-1.791-2.304c0-.512.128-1.024.512-1.28z" fill="#FFF"></path>
    <path d="M79.497 204.146l-26.236-1.791c-1.92-.128-3.199-1.792-3.071-3.712c.128-.768.384-1.535 1.024-2.047L62.22 185.59a1.237 1.237 0 0 1 1.792 0l16.38 16.38c.385.385.512.897.257 1.408c-.256.512-.64.768-1.152.768zm-16.381-15.74l-10.11 10.11c-.384.255-.384.895 0 1.151c.127.128.255.256.511.256l22.652 1.536l-13.053-13.054z" fill="#FF6C37"></path>
    <path d="M104.452 146.557c-.768 0-1.28-.64-1.28-1.28c0-.384.128-.64.384-.896l12.414-12.414a1.237 1.237 0 0 1 1.792 0l8.062 8.063c.384.384.512.768.384 1.28c-.128.384-.512.767-1.023.895l-20.477 4.352h-.256zm12.414-11.902l-8.446 8.446l13.821-2.943l-5.375-5.503z" fill="#FF6C37"></path>
    <path d="M124.8 140.926l-14.077 3.071c-1.024.256-2.048-.384-2.303-1.408c-.128-.64 0-1.28.511-1.791l7.807-7.807l8.063 7.935z" fill="#FFF"></path>
    <path d="M110.467 145.277a3.168 3.168 0 0 1-3.2-3.2c0-.895.385-1.663.897-2.303l7.806-7.807a1.237 1.237 0 0 1 1.792 0l8.062 8.063c.384.384.512.768.384 1.28c-.128.384-.512.767-1.023.895l-14.078 3.072h-.64zm6.399-10.622l-6.91 6.91c-.257.257-.257.512-.129.768s.384.384.768.384l11.774-2.56l-5.503-5.502z" fill="#FF6C37"></path>
    <path d="M203.25 64.907c-.256-.767-1.151-1.151-1.92-.895c-.767.255-1.151 1.151-.895 1.92c0 .127.128.255.128.383c.768 1.536.512 3.455-.512 4.863c-.512.64-.384 1.536.128 2.048c.64.512 1.536.384 2.048-.256c1.92-2.432 2.303-5.503 1.023-8.063z" fill="#FF6C37"></path>
  </symbol>
<symbol id="logos-css" width="currentWidth" height="currentHeight" viewBox="0 0 256 256" fill="none" xmlns="http://www.w3.org/2000/svg">
<rect width="256" height="256" rx="60" fill="#0277BD"/>
<path d="M53.7527 102.651L56.6155 134.593H128.096V102.651H53.7527Z" fill="#EBEBEB"/>
<path d="M128.095 38H127.985H48L50.9036 69.9423H128.095V38Z" fill="#EBEBEB"/>
<path d="M128.095 218.841V185.608L127.955 185.645L92.3813 176.04L90.1072 150.564H72.821H58.0425L62.5175 200.718L127.948 218.882L128.095 218.841Z" fill="#EBEBEB"/>
<path d="M167.318 134.593L163.61 176.019L127.985 185.635V218.866L193.468 200.718L193.948 195.321L201.454 111.229L202.233 102.651L208 38H127.985V69.9423H172.994L170.088 102.651H127.985V134.593H167.318Z" fill="white"/>
</symbol>
<symbol id="logos-figma" width="currentWidth" height="currentHeight" xmlns="http://www.w3.org/2000/svg" fill="none" viewBox="0 0 256 256"><rect width="256" height="256" fill="#242938" rx="60"/><g clip-path="url(#clip0_4_180)"><path fill="#0ACF83" d="M94.3467 228C112.747 228 127.68 213.067 127.68 194.667V161.333H94.3467C75.9467 161.333 61.0133 176.267 61.0133 194.667C61.0133 213.067 75.9467 228 94.3467 228Z"/><path fill="#A259FF" d="M61.0133 128C61.0133 109.6 75.9467 94.6667 94.3467 94.6667H127.68V161.333H94.3467C75.9467 161.333 61.0133 146.4 61.0133 128Z"/><path fill="#F24E1E" d="M61.0133 61.3333C61.0133 42.9333 75.9467 28 94.3467 28H127.68V94.6667H94.3467C75.9467 94.6667 61.0133 79.7333 61.0133 61.3333Z"/><path fill="#FF7262" d="M127.68 28H161.013C179.413 28 194.347 42.9333 194.347 61.3333C194.347 79.7333 179.413 94.6667 161.013 94.6667H127.68V28Z"/><path fill="#1ABCFE" d="M194.347 128C194.347 146.4 179.413 161.333 161.013 161.333C142.613 161.333 127.68 146.4 127.68 128C127.68 109.6 142.613 94.6667 161.013 94.6667C179.413 94.6667 194.347 109.6 194.347 128Z"/></g><defs><clipPath id="clip0_4_180"><rect width="133.36" height="200" fill="#fff" transform="translate(61 28)"/></clipPath></defs>
</symbol>
<symbol id="logos-git" width="currentWidth" height="currentHeight" xmlns="http://www.w3.org/2000/svg"  fill="none" viewBox="0 0 256 256"><rect width="256" height="256" fill="#F03C2E" rx="60"/><g clip-path="url(#clip0_7_283)"><path fill="#fff" d="M224.225 119.094L136.906 31.775C135.711 30.5787 134.291 29.6298 132.729 28.9824C131.166 28.3349 129.491 28.0017 127.8 28.0017C126.109 28.0017 124.434 28.3349 122.871 28.9824C121.309 29.6298 119.889 30.5787 118.694 31.775L100.569 49.9L123.569 72.9C128.919 71.025 135.044 72.3062 139.306 76.5687C141.335 78.6014 142.752 81.1638 143.394 83.9632C144.036 86.7626 143.878 89.6862 142.937 92.4L165.106 114.569C170.469 112.719 176.656 113.912 180.937 118.206C182.361 119.63 183.49 121.32 184.26 123.18C185.03 125.04 185.426 127.033 185.426 129.046C185.425 131.059 185.029 133.052 184.258 134.912C183.487 136.771 182.358 138.461 180.934 139.884C179.511 141.308 177.821 142.436 175.961 143.206C174.101 143.977 172.108 144.373 170.095 144.372C168.082 144.372 166.088 143.975 164.229 143.205C162.369 142.434 160.679 141.305 159.256 139.881C154.756 135.381 153.644 128.756 155.919 123.212L135.244 102.537V156.944C136.745 157.686 138.116 158.666 139.306 159.844C140.729 161.267 141.858 162.956 142.629 164.816C143.399 166.675 143.795 168.668 143.795 170.681C143.795 172.694 143.399 174.687 142.629 176.546C141.858 178.406 140.729 180.096 139.306 181.519C137.883 182.942 136.193 184.071 134.334 184.841C132.474 185.611 130.481 186.008 128.469 186.008C126.456 186.008 124.463 185.611 122.604 184.841C120.744 184.071 119.054 182.942 117.631 181.519C116.206 180.096 115.076 178.407 114.305 176.548C113.533 174.688 113.136 172.694 113.136 170.681C113.136 168.668 113.533 166.675 114.305 164.815C115.076 162.955 116.206 161.266 117.631 159.844C119.112 158.369 120.756 157.25 122.65 156.5V101.587C120.825 100.837 119.112 99.7312 117.631 98.2437C115.479 96.0943 114.016 93.3526 113.428 90.3684C112.841 87.3841 113.155 84.2924 114.331 81.4875L91.6437 58.8125L31.7687 118.625C30.5716 119.821 29.6219 121.241 28.9739 122.804C28.3259 124.367 27.9924 126.042 27.9924 127.734C27.9924 129.426 28.3259 131.102 28.9739 132.665C29.6219 134.228 30.5716 135.648 31.7687 136.844L119.094 224.156C120.289 225.352 121.709 226.301 123.271 226.949C124.834 227.596 126.509 227.929 128.2 227.929C129.891 227.929 131.566 227.596 133.129 226.949C134.691 226.301 136.111 225.352 137.306 224.156L224.225 137.375C225.422 136.179 226.372 134.759 227.02 133.196C227.668 131.633 228.001 129.958 228.001 128.266C228.001 126.574 227.668 124.898 227.02 123.335C226.372 121.772 225.422 120.352 224.225 119.156"/></g><defs><clipPath id="clip0_7_283"><rect width="200" height="200" fill="#fff" transform="translate(28 28)"/></clipPath></defs>
</symbol>
<symbol id="logos-github-dark" width="currentWidth" height="currentHeight" viewBox="0 0 256 256" fill="none" xmlns="http://www.w3.org/2000/svg">
<rect width="256" height="256" rx="60" fill="#242938"/>
<path d="M128.001 30C72.7791 30 28 74.7708 28 130.001C28 174.184 56.6533 211.668 96.3867 224.891C101.384 225.817 103.219 222.722 103.219 220.081C103.219 217.696 103.126 209.819 103.083 201.463C75.2631 207.512 69.3927 189.664 69.3927 189.664C64.8437 178.105 58.2894 175.032 58.2894 175.032C49.2163 168.825 58.9733 168.953 58.9733 168.953C69.0151 169.658 74.3026 179.258 74.3026 179.258C83.2217 194.546 97.6965 190.126 103.403 187.571C104.301 181.107 106.892 176.696 109.752 174.199C87.5405 171.67 64.1913 163.095 64.1913 124.778C64.1913 113.86 68.0977 104.939 74.4947 97.9362C73.4564 95.4175 70.0335 85.2465 75.4635 71.4722C75.4635 71.4722 83.8609 68.7845 102.971 81.7226C110.948 79.5069 119.502 78.3958 128.001 78.3577C136.499 78.3958 145.061 79.5069 153.052 81.7226C172.139 68.7845 180.525 71.4722 180.525 71.4722C185.968 85.2465 182.544 95.4175 181.505 97.9362C187.917 104.939 191.797 113.86 191.797 124.778C191.797 163.187 168.403 171.644 146.135 174.119C149.722 177.223 152.918 183.308 152.918 192.638C152.918 206.018 152.802 216.787 152.802 220.081C152.802 222.742 154.602 225.86 159.671 224.878C199.383 211.64 228 174.169 228 130.001C228 74.7708 183.227 30 128.001 30ZM65.4536 172.453C65.2333 172.95 64.4517 173.099 63.7396 172.758C63.0143 172.432 62.6069 171.754 62.8421 171.256C63.0574 170.744 63.8406 170.602 64.5643 170.945C65.2913 171.271 65.7053 171.955 65.4536 172.453ZM70.3725 176.842C69.8956 177.285 68.9633 177.079 68.3307 176.38C67.6766 175.683 67.554 174.751 68.0376 174.302C68.5294 173.86 69.4336 174.067 70.0893 174.764C70.7434 175.47 70.8709 176.395 70.3725 176.842ZM73.7471 182.458C73.1344 182.884 72.1325 182.485 71.5132 181.595C70.9004 180.706 70.9004 179.64 71.5264 179.212C72.1474 178.785 73.1344 179.169 73.762 180.052C74.373 180.956 74.373 182.023 73.7471 182.458ZM79.4542 188.962C78.9061 189.566 77.7386 189.404 76.8841 188.579C76.0098 187.773 75.7663 186.629 76.3161 186.024C76.8709 185.418 78.045 185.589 78.9061 186.407C79.7738 187.211 80.0387 188.364 79.4542 188.962ZM86.8301 191.157C86.5883 191.941 85.4639 192.297 84.3312 191.964C83.2002 191.621 82.46 190.704 82.6885 189.912C82.9237 189.124 84.053 188.753 85.194 189.109C86.3234 189.45 87.0652 190.361 86.8301 191.157ZM95.2242 192.089C95.2523 192.913 94.2919 193.597 93.1029 193.612C91.9073 193.639 90.9402 192.971 90.9269 192.16C90.9269 191.327 91.8659 190.65 93.0615 190.63C94.2505 190.607 95.2242 191.269 95.2242 192.089ZM103.47 191.773C103.613 192.577 102.787 193.404 101.606 193.624C100.445 193.836 99.3702 193.339 99.2229 192.541C99.0788 191.716 99.92 190.89 101.079 190.676C102.262 190.471 103.32 190.955 103.47 191.773Z" fill="white"/>
</symbol>
<symbol id="logos-html" width="currentWidth" height="currentHeight" xmlns="http://www.w3.org/2000/svg"  fill="none" viewBox="0 0 256 256"><rect width="256" height="256" fill="#E14E1D" rx="60"/><path fill="#fff" d="M48 38L56.6098 134.593H167.32L163.605 176.023L127.959 185.661L92.38 176.037L90.0012 149.435H57.9389L62.5236 200.716L127.951 218.888L193.461 200.716L202.244 102.655H85.8241L82.901 69.9448H205.041H205.139L208 38H48Z"/><path fill="#EBEBEB" d="M128 38H48L56.6098 134.593H128V102.655H85.8241L82.901 69.9448H128V38Z"/><path fill="#EBEBEB" d="M128 185.647L127.959 185.661L92.38 176.037L90.0012 149.435H57.9388L62.5236 200.716L127.951 218.888L128 218.874V185.647Z"/>
</symbol>
<symbol id="logos-javascript" width="currentWidth" height="currentHeight" viewBox="0 0 256 256" fill="none" xmlns="http://www.w3.org/2000/svg">
<rect width="256" height="256" rx="60" fill="#F0DB4F"/>
<path d="M67.3117 213.932L86.9027 202.076C90.6821 208.777 94.1202 214.447 102.367 214.447C110.272 214.447 115.256 211.355 115.256 199.327V117.529H139.314V199.667C139.314 224.584 124.708 235.926 103.398 235.926C84.1533 235.926 72.9819 225.959 67.3113 213.93" fill="#323330"/>
<path d="M152.381 211.354L171.969 200.013C177.126 208.434 183.828 214.62 195.684 214.62C205.653 214.62 212.009 209.636 212.009 202.762C212.009 194.514 205.479 191.592 194.481 186.782L188.468 184.203C171.111 176.815 159.597 167.535 159.597 147.945C159.597 129.901 173.345 116.153 194.826 116.153C210.12 116.153 221.118 121.481 229.022 135.4L210.291 147.429C206.166 140.04 201.7 137.119 194.826 137.119C187.78 137.119 183.312 141.587 183.312 147.429C183.312 154.646 187.78 157.568 198.09 162.037L204.104 164.614C224.553 173.379 236.067 182.313 236.067 202.418C236.067 224.072 219.055 235.928 196.2 235.928C173.861 235.928 159.426 225.274 152.381 211.354" fill="#323330"/>
</symbol>
<symbol id="logos-mysql" width="currentWidth" height="currentHeight" xmlns="http://www.w3.org/2000/svg" fill="none" viewBox="0 0 256 256"><rect width="256" height="256" fill="#F4F2ED" rx="60"/><g clip-path="url(#clip0_7_150)"><path fill="#00678C" fill-rule="evenodd" d="M203.801 178.21C194.011 177.938 186.416 178.941 180.051 181.619C178.218 182.355 175.277 182.355 175.035 184.662C176.015 185.63 176.133 187.214 176.992 188.556C178.459 190.991 181.033 194.271 183.357 195.973L191.191 201.571C195.965 204.488 201.351 206.193 206.002 209.113C208.696 210.817 211.388 213.007 214.082 214.834C215.454 215.807 216.285 217.392 218 217.997V217.629C217.144 216.538 216.897 214.957 216.044 213.735L212.367 210.209C208.82 205.465 204.41 201.325 199.636 197.922C195.718 195.245 187.152 191.596 185.56 187.097L185.319 186.824C188.008 186.552 191.191 185.605 193.764 184.875C197.929 183.784 201.721 184.024 206.002 182.93L211.882 181.226V180.135C209.678 177.946 208.087 175.025 205.763 172.959C199.521 167.606 192.661 162.373 185.56 157.994C181.766 155.562 176.868 153.977 172.829 151.913C171.356 151.182 168.911 150.817 168.055 149.601C165.846 146.929 164.625 143.397 163.034 140.232L152.997 119.064C150.794 114.319 149.444 109.574 146.755 105.195C134.144 84.5124 120.431 71.9828 99.375 59.6932C94.8477 57.1382 89.4616 56.0393 83.7353 54.7032L74.5546 54.2124C72.5928 53.3616 70.6364 51.0493 68.9216 49.9531C61.9441 45.5739 43.9475 36.0847 38.8029 48.5897C35.4966 56.4974 43.7006 64.2824 46.4855 68.299C48.5708 71.0966 51.2597 74.2597 52.7332 77.4228C53.5563 79.4897 53.8307 81.682 54.6895 83.8717C56.6458 89.2243 58.4842 95.1878 61.0551 100.178C62.427 102.733 63.8675 105.413 65.5824 107.723C66.5619 109.086 68.2768 109.67 68.6417 111.859C66.9268 114.294 66.8089 117.94 65.8293 120.986C61.42 134.734 63.1349 151.766 69.377 161.888C71.3389 164.928 75.9622 171.622 82.2345 169.065C87.744 166.875 86.5148 159.941 88.1062 153.857C88.4766 152.399 88.2297 151.425 88.9623 150.449V150.722L93.9834 160.819C97.7781 166.78 104.391 172.986 109.897 177.125C112.833 179.315 115.16 183.089 118.831 184.425V184.057H118.59C117.854 182.966 116.751 182.475 115.772 181.624C113.569 179.435 111.121 176.757 109.406 174.325C104.267 167.513 99.7399 159.968 95.6983 152.183C93.7365 148.412 92.0216 144.275 90.4357 140.504C89.6949 139.043 89.6949 136.85 88.4739 136.125C86.6355 138.797 83.9466 141.115 82.5939 144.398C80.2672 149.628 80.0257 156.077 79.1697 162.769C78.6758 162.891 78.8953 162.769 78.6758 163.041C74.7631 162.071 73.4132 158.051 71.9453 154.648C68.274 146.01 67.6594 132.141 70.8422 122.164C71.6983 119.609 75.375 111.579 73.9071 109.146C73.1662 106.834 70.7242 105.498 69.3743 103.671C67.7829 101.359 66.0735 98.4409 64.9705 95.8859C62.0346 89.0689 60.5667 81.5293 57.3812 74.7151C55.9077 71.552 53.3396 68.2662 51.257 65.3486C48.9303 62.0628 46.3648 59.7505 44.5265 55.8593C43.9146 54.4959 43.0585 52.3309 44.0381 50.8693C44.2795 49.8959 44.7734 49.5059 45.7475 49.2878C47.3389 47.9244 51.8716 49.6532 53.463 50.3785C57.9903 52.2054 61.7849 53.907 65.5796 56.4592C67.2945 57.6754 69.1329 59.9877 71.3361 60.5985H73.9098C77.8279 61.4493 82.2317 60.8712 85.9002 61.9619C92.3893 64.0343 98.2637 67.0719 103.532 70.3604C119.567 80.4577 132.792 94.8143 141.725 111.971C143.193 114.769 143.805 117.324 145.155 120.244C147.729 126.208 150.912 132.289 153.477 138.132C156.051 143.85 158.498 149.694 162.17 154.438C164.008 156.993 171.35 158.329 174.654 159.668C177.104 160.759 180.896 161.741 183.105 163.077C187.264 165.632 191.427 168.552 195.342 171.35C197.298 172.806 203.423 175.849 203.787 178.276L203.801 178.21ZM78.9584 72.4873C77.267 72.4724 75.5809 72.6769 73.9427 73.0954V73.3681H74.1842C75.1637 75.315 76.8786 76.6538 78.1023 78.3581L80.9202 84.1989L81.1616 83.9262C82.8765 82.71 83.7353 80.7631 83.7353 77.8454C83 76.9947 82.8793 76.1412 82.2674 75.2904C81.5321 74.0743 79.9407 73.4635 78.9584 72.4928V72.4873Z" clip-rule="evenodd"/></g><defs><clipPath id="clip0_7_150"><rect width="180" height="180" fill="#fff" transform="translate(38 38)"/></clipPath></defs>
</symbol>
<symbol id="logos-nodejs" width="currentWidth" height="currentHeight" xmlns="http://www.w3.org/2000/svg" fill="none" viewBox="0 0 256 256"><rect width="256" height="256" fill="#F4F2ED" rx="60"/><path fill="#81CD39" d="M119.878 31.1164C124.797 28.3008 131.203 28.2883 136.117 31.1164C160.839 45.0855 185.569 59.0332 210.287 73.0108C214.937 75.6296 218.046 80.8038 217.999 86.1608V170.206C218.034 175.785 214.617 181.083 209.712 183.642C185.071 197.535 160.442 211.444 135.805 225.337C130.786 228.207 124.251 227.986 119.387 224.88C112 220.598 104.6 216.336 97.2121 212.058C95.7022 211.158 94.0004 210.442 92.9345 208.978C93.8766 207.708 95.5618 207.55 96.9309 206.995C100.014 206.014 102.847 204.44 105.679 202.913C106.396 202.423 107.27 202.611 107.957 203.049C114.274 206.671 120.536 210.399 126.874 213.986C128.226 214.767 129.595 213.73 130.751 213.086C154.931 199.419 179.141 185.805 203.318 172.134C204.214 171.703 204.709 170.752 204.636 169.771C204.653 142.046 204.64 114.317 204.645 86.5918C204.747 85.4785 204.103 84.455 203.096 83.999C178.541 70.1702 153.997 56.3205 129.446 42.4882C128.575 41.8893 127.426 41.8878 126.554 42.4837C102.002 56.3205 77.4638 70.1832 52.9124 84.011C51.9092 84.4675 51.236 85.4745 51.3554 86.5918C51.3596 114.317 51.3554 142.046 51.3554 169.775C51.2682 170.756 51.801 171.687 52.6906 172.109C59.2422 175.824 65.8024 179.513 72.3582 183.216C76.0516 185.203 80.5863 186.385 84.6555 184.862C88.2463 183.574 90.7633 179.909 90.6948 176.097C90.7288 148.534 90.6778 120.967 90.7203 93.4078C90.6309 92.1841 91.7912 91.1731 92.981 91.2885C96.1292 91.267 99.281 91.2461 102.429 91.297C103.743 91.267 104.647 92.5847 104.485 93.8174C104.472 121.555 104.519 149.293 104.464 177.03C104.472 184.423 101.435 192.467 94.5973 196.084C86.1737 200.447 75.7619 199.522 67.4399 195.338C60.2355 191.742 53.3603 187.498 46.2838 183.646C41.3661 181.101 37.966 175.782 38.0006 170.207V86.1608C37.949 80.6929 41.1825 75.4248 45.9764 72.8445C70.6133 58.9408 95.2461 45.0261 119.878 31.1164Z"/><path fill="#81CD39" d="M141.372 89.3351C152.117 88.6433 163.62 88.9255 173.289 94.2185C180.776 98.2754 184.926 106.789 185.058 115.106C184.849 116.227 183.676 116.846 182.605 116.769C179.488 116.765 176.369 116.812 173.252 116.748C171.929 116.799 171.161 115.58 170.995 114.411C170.099 110.431 167.928 106.49 164.183 104.57C158.433 101.692 151.767 101.837 145.496 101.897C140.92 102.139 135.998 102.536 132.12 105.227C129.143 107.266 128.239 111.382 129.301 114.697C130.303 117.077 133.05 117.845 135.298 118.553C148.248 121.94 161.97 121.602 174.671 126.059C179.931 127.876 185.075 131.409 186.875 136.915C189.23 144.295 188.198 153.115 182.947 159.039C178.689 163.914 172.488 166.568 166.303 168.009C158.075 169.844 149.536 169.891 141.18 169.076C133.323 168.18 125.146 166.116 119.081 160.763C113.894 156.259 111.361 149.241 111.612 142.469C111.672 141.325 112.811 140.527 113.907 140.621C117.046 140.596 120.186 140.587 123.325 140.626C124.579 140.536 125.509 141.62 125.573 142.802C126.152 146.593 127.577 150.573 130.883 152.82C137.264 156.937 145.271 156.655 152.577 156.77C158.629 156.502 165.424 156.421 170.364 152.42C172.97 150.138 173.742 146.32 173.038 143.036C172.275 140.263 169.374 138.971 166.883 138.126C154.1 134.083 140.224 135.55 127.565 130.977C122.425 129.161 117.455 125.727 115.481 120.447C112.726 112.974 113.988 103.73 119.789 98.0061C125.445 92.312 133.609 90.1192 141.372 89.3346V89.3351"/>
</symbol>
<symbol id="logos-photoshop" width="currentWidth" height="currentHeight" xmlns="http://www.w3.org/2000/svg" fill="none" viewBox="0 0 256 256"><rect width="256" height="256" fill="#001E36" rx="60"/><path fill="#31A8FF" d="M57.6001 178.04V68.2799C57.6001 67.5332 57.9201 67.1066 58.6668 67.1066C60.4801 67.1066 62.1868 67.1066 64.6401 66.9999C67.2001 66.8932 69.8668 66.8932 72.7468 66.7866C75.6268 66.6799 78.7201 66.6799 82.0268 66.5732C85.3334 66.4666 88.5334 66.4666 91.7334 66.4666C100.48 66.4666 107.733 67.5332 113.707 69.7732C119.04 71.5866 123.947 74.5732 128 78.5199C131.413 81.9332 134.08 86.0932 135.787 90.6799C137.387 95.1599 138.24 99.7466 138.24 104.547C138.24 113.72 136.107 121.293 131.84 127.267C127.573 133.24 121.6 137.72 114.667 140.28C107.413 142.947 99.4134 143.907 90.6668 143.907C88.1068 143.907 86.4001 143.907 85.3334 143.8C84.2668 143.693 82.7734 143.693 80.7468 143.693V177.933C80.8534 178.68 80.3201 179.32 79.5734 179.427C79.4668 179.427 79.3601 179.427 79.1468 179.427H58.8801C58.0268 179.427 57.6001 179 57.6001 178.04ZM80.8534 87.6932V123.533C82.3468 123.64 83.7334 123.747 85.0134 123.747H90.6668C94.8268 123.747 98.9868 123.107 102.933 121.827C106.347 120.867 109.333 118.84 111.68 116.173C113.92 113.507 114.987 109.88 114.987 105.187C115.093 101.88 114.24 98.5732 112.533 95.6932C110.72 92.9199 108.16 90.7866 105.067 89.6132C101.12 88.0132 96.8534 87.3732 92.4801 87.4799C89.7068 87.4799 87.2534 87.4799 85.2268 87.5866C83.0934 87.4799 81.6001 87.5866 80.8534 87.6932Z"/><path fill="#31A8FF" d="M204.8 117.027C201.6 115.32 198.187 114.147 194.56 113.4C190.613 112.547 186.667 112.013 182.613 112.013C180.48 111.907 178.24 112.227 176.213 112.76C174.827 113.08 173.653 113.827 172.907 114.893C172.373 115.747 172.053 116.813 172.053 117.773C172.053 118.733 172.48 119.693 173.12 120.547C174.08 121.72 175.36 122.68 176.747 123.427C179.2 124.707 181.76 125.88 184.32 126.947C190.08 128.867 195.627 131.533 200.747 134.733C204.267 136.973 207.147 139.96 209.173 143.587C210.88 147 211.733 150.733 211.627 154.573C211.733 159.587 210.24 164.6 207.467 168.76C204.48 173.027 200.32 176.333 195.52 178.253C190.293 180.493 183.893 181.667 176.213 181.667C171.307 181.667 166.507 181.24 161.707 180.28C157.973 179.64 154.24 178.467 150.827 176.867C150.08 176.44 149.547 175.693 149.653 174.84V156.28C149.653 155.96 149.76 155.533 150.08 155.32C150.4 155.107 150.72 155.213 151.04 155.427C155.2 157.88 159.573 159.587 164.267 160.653C168.32 161.72 172.587 162.253 176.853 162.253C180.907 162.253 183.787 161.72 185.707 160.76C187.413 160.013 188.587 158.2 188.587 156.28C188.587 154.787 187.733 153.4 186.027 152.013C184.32 150.627 180.8 149.027 175.573 147C170.133 145.08 165.12 142.52 160.427 139.32C157.12 136.973 154.347 133.88 152.32 130.253C150.613 126.84 149.76 123.107 149.867 119.373C149.867 114.787 151.147 110.413 153.493 106.467C156.16 102.2 160.107 98.7866 164.693 96.6532C169.707 94.0932 176 92.9199 183.573 92.9199C187.947 92.9199 192.427 93.2399 196.8 93.8799C200 94.3066 203.093 95.1599 205.973 96.3332C206.4 96.4399 206.827 96.8666 207.04 97.2932C207.147 97.7199 207.253 98.1466 207.253 98.5732V115.96C207.253 116.387 207.04 116.813 206.72 117.027C205.76 117.24 205.227 117.24 204.8 117.027Z"/>
</symbol>
<symbol  id="logos-react" width="currentWidth" height="currentHeight" xmlns="http://www.w3.org/2000/svg" fill="none" viewBox="0 0 256 256"><rect width="256" height="256" fill="#242938" rx="60"/><path fill="#00D8FF" d="M128.001 146.951C138.305 146.951 146.657 138.598 146.657 128.295C146.657 117.992 138.305 109.639 128.001 109.639C117.698 109.639 109.345 117.992 109.345 128.295C109.345 138.598 117.698 146.951 128.001 146.951Z"/><path fill-rule="evenodd" stroke="#00D8FF" stroke-width="8.911" d="M128.002 90.3633C153.05 90.3633 176.319 93.9575 193.864 99.9976C215.003 107.275 228 118.306 228 128.295C228 138.704 214.226 150.423 191.525 157.944C174.363 163.63 151.779 166.598 128.002 166.598C103.624 166.598 80.5389 163.812 63.1834 157.881C41.2255 150.376 28 138.506 28 128.295C28 118.387 40.4096 107.441 61.2515 100.175C78.8617 94.0353 102.705 90.3633 127.998 90.3633H128.002Z" clip-rule="evenodd"/><path fill-rule="evenodd" stroke="#00D8FF" stroke-width="8.911" d="M94.9811 109.438C107.495 87.7402 122.232 69.3783 136.23 57.1971C153.094 42.5206 169.144 36.7728 177.796 41.7623C186.813 46.9623 190.084 64.7496 185.259 88.1712C181.614 105.879 172.9 126.925 161.021 147.523C148.842 168.641 134.897 187.247 121.09 199.315C103.619 214.587 86.7284 220.114 77.8833 215.013C69.3003 210.067 66.0181 193.846 70.1356 172.161C73.6145 153.838 82.3451 131.349 94.977 109.438L94.9811 109.438Z" clip-rule="evenodd"/><path fill-rule="evenodd" stroke="#00D8FF" stroke-width="8.911" d="M95.0123 147.578C82.4633 125.904 73.9194 103.962 70.3531 85.7517C66.0602 63.8109 69.0954 47.0355 77.7401 42.0315C86.7485 36.8163 103.792 42.866 121.674 58.7437C135.194 70.7479 149.077 88.8052 160.99 109.383C173.204 130.481 182.358 151.856 185.919 169.844C190.425 192.608 186.778 210.001 177.941 215.116C169.367 220.08 153.676 214.825 136.945 200.427C122.809 188.263 107.685 169.468 95.0123 147.578Z" clip-rule="evenodd"/>
</symbol>
<symbol id="logos-sass" width="currentWidth" height="currentHeight" xmlns="http://www.w3.org/2000/svg" fill="none" viewBox="0 0 256 256"><rect width="256" height="256" fill="#CD6799" rx="60"/><g clip-path="url(#clip0_137_201)"><path fill="#fff" d="M200.107 139.163C193.133 139.199 187.073 140.879 181.998 143.361C180.136 139.674 178.274 136.388 177.945 133.978C177.58 131.167 177.142 129.451 177.58 126.092C178.018 122.733 179.99 117.951 179.953 117.586C179.917 117.22 179.515 115.505 175.499 115.468C171.483 115.432 168.015 116.235 167.613 117.294C167.211 118.352 166.445 120.762 165.934 123.245C165.24 126.896 157.901 139.93 153.703 146.757C152.352 144.092 151.184 141.755 150.928 139.893C150.563 137.082 150.125 135.366 150.563 132.007C151.001 128.648 152.973 123.865 152.936 123.5C152.9 123.135 152.498 121.419 148.482 121.383C144.466 121.346 140.997 122.149 140.596 123.208C140.194 124.267 139.756 126.75 138.916 129.159C138.077 131.569 128.329 153.329 125.773 158.951C124.459 161.835 123.327 164.135 122.524 165.705C122.524 165.705 122.487 165.815 122.378 165.997C121.684 167.348 121.282 168.078 121.282 168.078C121.282 168.078 121.282 168.078 121.282 168.115C120.735 169.101 120.15 170.013 119.858 170.013C119.639 170.013 119.238 167.385 119.931 163.807C121.392 156.249 124.86 144.493 124.824 144.092C124.824 143.873 125.481 141.828 122.56 140.769C119.712 139.71 118.69 141.463 118.434 141.463C118.179 141.463 117.996 142.084 117.996 142.084C117.996 142.084 121.173 128.867 111.936 128.867C106.167 128.867 98.2081 135.183 94.2651 140.879C91.7824 142.23 86.4885 145.114 80.8295 148.217C78.6755 149.422 76.4484 150.627 74.3673 151.759C74.2213 151.613 74.0753 151.43 73.9292 151.284C62.7573 139.345 42.0928 130.912 42.969 114.884C43.2976 109.042 45.3056 93.7083 82.655 75.0883C113.396 59.9368 137.858 64.1354 142.093 73.4454C148.153 86.7349 128.986 111.415 97.2224 114.993C85.1012 116.344 78.7485 111.671 77.1421 109.919C75.4626 108.093 75.2071 107.984 74.5864 108.349C73.5641 108.896 74.2213 110.539 74.5864 111.488C75.5356 113.971 79.4422 118.352 86.0504 120.506C91.892 122.405 106.094 123.464 123.29 116.819C142.531 109.371 157.573 88.6699 153.155 71.3278C148.738 53.7302 119.53 47.9251 91.892 57.7462C75.4626 63.5878 57.6459 72.7882 44.831 84.7634C29.6065 99.0022 27.1968 111.379 28.1826 116.563C31.724 134.964 57.0983 146.939 67.2479 155.811C66.7368 156.103 66.2622 156.359 65.8606 156.578C60.7857 159.097 41.4356 169.21 36.6163 179.908C31.1399 192.029 37.4926 200.718 41.6912 201.886C54.7251 205.501 68.1242 199.002 75.3166 188.268C82.509 177.534 81.6328 163.588 78.3104 157.199C78.2739 157.126 78.2374 157.053 78.1643 156.98C79.4787 156.213 80.8295 155.41 82.1439 154.643C84.7361 153.11 87.2917 151.686 89.4823 150.517C88.241 153.913 87.3283 157.965 86.8901 163.807C86.3425 170.671 89.1537 179.579 92.8412 183.084C94.4842 184.617 96.4192 184.654 97.6605 184.654C101.969 184.654 103.904 181.076 106.058 176.841C108.686 171.656 111.06 165.632 111.06 165.632C111.06 165.632 108.102 181.916 116.134 181.916C119.055 181.916 122.012 178.119 123.327 176.184C123.327 176.22 123.327 176.22 123.327 176.22C123.327 176.22 123.4 176.111 123.546 175.855C123.838 175.38 124.02 175.088 124.02 175.088C124.02 175.088 124.02 175.052 124.02 175.015C125.189 172.971 127.817 168.334 131.724 160.63C136.762 150.7 141.618 138.287 141.618 138.287C141.618 138.287 142.056 141.317 143.553 146.355C144.429 149.313 146.255 152.562 147.715 155.702C146.547 157.345 145.817 158.257 145.817 158.257C145.817 158.257 145.817 158.257 145.853 158.294C144.904 159.535 143.882 160.886 142.75 162.2C138.77 166.947 134.024 172.387 133.367 173.957C132.6 175.819 132.783 177.169 134.243 178.265C135.302 179.068 137.2 179.177 139.135 179.068C142.713 178.812 145.233 177.936 146.474 177.388C148.409 176.695 150.673 175.636 152.79 174.066C156.697 171.182 159.07 167.056 158.851 161.616C158.741 158.622 157.755 155.629 156.551 152.817C156.916 152.306 157.244 151.795 157.609 151.284C163.78 142.266 168.562 132.372 168.562 132.372C168.562 132.372 169 135.402 170.497 140.441C171.227 142.996 172.724 145.771 174.039 148.473C168.234 153.183 164.656 158.659 163.378 162.237C161.078 168.882 162.867 171.875 166.262 172.569C167.796 172.898 169.986 172.168 171.593 171.474C173.637 170.817 176.047 169.685 178.347 168.005C182.253 165.121 186.014 161.105 185.795 155.665C185.685 153.183 185.028 150.736 184.115 148.363C189.044 146.319 195.397 145.187 203.502 146.136C220.881 148.181 224.313 159.024 223.655 163.588C222.998 168.151 219.347 170.634 218.142 171.401C216.938 172.168 216.536 172.423 216.646 172.971C216.792 173.774 217.376 173.737 218.398 173.591C219.822 173.336 227.525 169.904 227.854 161.507C228.402 150.773 218.179 139.053 200.107 139.163ZM66.0431 184.362C60.2746 190.641 52.2425 193.015 48.7741 191.007C45.0501 188.852 46.5105 179.579 53.5933 172.934C57.9015 168.882 63.4509 165.121 67.1384 162.821C67.9781 162.31 69.2195 161.58 70.7164 160.667C70.9719 160.521 71.118 160.448 71.118 160.448C71.41 160.265 71.7021 160.083 71.9942 159.9C74.5864 169.393 72.1037 177.754 66.0431 184.362ZM108.029 155.811C106.021 160.704 101.823 173.226 99.2669 172.533C97.0763 171.948 95.7255 162.456 98.8288 153.073C100.399 148.363 103.721 142.741 105.656 140.55C108.796 137.045 112.264 135.877 113.104 137.301C114.163 139.163 109.271 152.744 108.029 155.811ZM142.677 172.387C141.837 172.825 141.034 173.117 140.669 172.898C140.413 172.752 141.034 172.168 141.034 172.168C141.034 172.168 145.379 167.494 147.095 165.377C148.08 164.135 149.249 162.675 150.49 161.032C150.49 161.178 150.49 161.361 150.49 161.507C150.49 167.093 145.087 170.853 142.677 172.387ZM169.402 166.289C168.781 165.851 168.891 164.391 170.972 159.827C171.775 158.038 173.674 155.045 176.923 152.16C177.288 153.329 177.544 154.46 177.507 155.519C177.471 162.566 172.432 165.194 169.402 166.289Z"/></g><defs><clipPath id="clip0_137_201"><rect width="200" height="149.909" fill="#fff" transform="translate(28 53)"/></clipPath></defs>
</symbol>
<symbol id="logos-tailwind" xmlns="http://www.w3.org/2000/svg" width="currentWidth" height="currentHeight" fill="none" viewBox="0 0 256 256"><rect width="256" height="256" fill="#F4F2ED" rx="60"/><path fill="#38BDF8" fill-rule="evenodd" d="M83 110C88.9991 86.0009 104.001 74 128 74C164 74 168.5 101 186.5 105.5C198.501 108.501 209 104.001 218 92C212.001 115.999 196.999 128 173 128C137 128 132.5 101 114.5 96.5C102.499 93.4991 92 97.9991 83 110ZM38 164C43.9991 140.001 59.0009 128 83 128C119 128 123.5 155 141.5 159.5C153.501 162.501 164 158.001 173 146C167.001 169.999 151.999 182 128 182C92 182 87.5 155 69.5 150.5C57.4991 147.499 47 151.999 38 164Z" clip-rule="evenodd"/><defs><linearGradient id="paint0_linear_2_118" x1="86.5" x2="163.5" y1="74" y2="185.5" gradientUnits="userSpaceOnUse"><stop stop-color="#32B1C1"/><stop offset="1" stop-color="#14C6B7"/></linearGradient></defs></symbol>
<symbol id="logos-typescript" width="currentWidth" height="currentHeight" xmlns="http://www.w3.org/2000/svg" fill="none" viewBox="0 0 256 256"><rect width="256" height="256" fill="#007ACC" rx="60"/><path fill="#fff" d="M56.6112 128.849L56.5299 139.333H73.1902H89.8505L89.8505 186.673V234.012H101.635H113.419V186.673L113.419 139.333H130.079H146.739V129.052C146.739 123.363 146.618 118.609 146.455 118.487C146.333 118.325 126.056 118.243 101.472 118.284L56.7331 118.406L56.6112 128.849Z"/><path fill="#fff" d="M206.567 118.108C213.068 119.734 218.026 122.619 222.577 127.332C224.934 129.852 228.428 134.444 228.713 135.541C228.794 135.866 217.66 143.343 210.915 147.528C210.671 147.691 209.695 146.634 208.598 145.009C205.307 140.214 201.853 138.141 196.57 137.776C188.809 137.247 183.811 141.311 183.852 148.097C183.852 150.088 184.136 151.266 184.949 152.892C186.655 156.427 189.825 158.54 199.781 162.847C218.107 170.731 225.949 175.932 230.826 183.327C236.271 191.576 237.49 204.742 233.792 214.535C229.729 225.181 219.651 232.414 205.469 234.812C201.081 235.584 190.678 235.462 185.965 234.609C175.684 232.78 165.932 227.701 159.918 221.037C157.561 218.436 152.969 211.65 153.254 211.162C153.375 211 154.432 210.35 155.61 209.659C156.748 209.009 161.056 206.53 165.119 204.173L172.474 199.906L174.018 202.182C176.172 205.473 180.885 209.984 183.73 211.487C191.897 215.795 203.113 215.185 208.639 210.228C210.996 208.074 211.971 205.839 211.971 202.548C211.971 199.581 211.605 198.281 210.061 196.046C208.07 193.202 204.007 190.804 192.466 185.806C179.26 180.117 173.571 176.582 168.37 170.974C165.363 167.724 162.518 162.522 161.34 158.174C160.365 154.558 160.121 145.496 160.893 141.839C163.615 129.08 173.246 120.181 187.143 117.539C191.654 116.686 202.137 117.011 206.567 118.108Z"/>
</symbol>
<symbol id="logos-vscode"  xmlns="http://www.w3.org/2000/svg" width="currentWidth" height="currentHeight" fill="none" viewBox="0 0 256 256"><rect width="256" height="256" fill="#F4F2ED" rx="60"/><path fill="#2489CA" d="M33.7158 100.208C33.7158 100.208 28.9814 96.795 34.6627 92.2381L47.8994 80.402C47.8994 80.402 51.6869 76.4172 55.6915 79.8891L177.84 172.368V216.714C177.84 216.714 177.781 223.678 168.844 222.908L33.7158 100.208Z"/><path fill="#1070B3" d="M65.1997 128.792L33.7157 157.415C33.7157 157.415 30.4805 159.822 33.7157 164.123L48.3333 177.418C48.3333 177.418 51.8052 181.147 56.9341 176.905L90.3119 151.596L65.1997 128.792Z"/><path fill="#0877B9" d="M120.474 129.029L178.215 84.9391L177.84 40.83C177.84 40.83 175.374 31.2033 167.148 36.2139L90.312 106.145L120.474 129.029Z"/><path fill="#3C99D4" d="M168.844 222.968C172.198 226.4 176.262 225.276 176.262 225.276L221.259 203.103C227.019 199.177 226.21 194.305 226.21 194.305V61.8982C226.21 56.0788 220.252 54.0667 220.252 54.0667L181.253 35.267C172.731 30 167.148 36.2139 167.148 36.2139C167.148 36.2139 174.328 31.0455 177.84 40.83V215.905C177.84 217.109 177.583 218.292 177.071 219.358C176.045 221.429 173.816 223.362 168.47 222.553L168.844 222.968Z"/>
</symbol>
</svg>

